<?xml version="1.0" encoding="UTF-8"?>
<svg version="1.1" xmlns="http://www.w3.org/2000/svg" width="450" height="225">
<path d="M0 0 C2.62741089 -0.38768005 2.62741089 -0.38768005 6.00341797 -0.40405273 C7.89711624 -0.42307899 7.89711624 -0.42307899 9.82907104 -0.44248962 C11.21677818 -0.44043618 12.6044842 -0.4374465 13.9921875 -0.43359375 C15.41790007 -0.43815686 16.84361044 -0.44346282 18.26931763 -0.44947815 C21.26720057 -0.45843087 24.26481759 -0.45596837 27.26269531 -0.44604492 C31.0732197 -0.43465156 34.88280403 -0.45460457 38.69320488 -0.48396206 C41.6447011 -0.50248515 44.5959798 -0.5019983 47.54751968 -0.49632454 C48.94990465 -0.49617274 50.35230575 -0.50209796 51.75463486 -0.51461601 C60.96630921 -0.58515284 71.77484829 -0.5936988 79.09054565 5.83790588 C83.66568629 10.95778106 84.23147431 14.89754745 84.3125 21.6875 C84.35600586 22.87375977 84.35600586 22.87375977 84.40039062 24.08398438 C84.4628762 29.90475615 83.48239995 33.287469 80 38 C77.59765625 39.7421875 77.59765625 39.7421875 75.0625 40.875 C74.22847656 41.26429687 73.39445312 41.65359375 72.53515625 42.0546875 C66.86150106 44.17028774 61.17879378 44.28996538 55.1875 44.5625 C54.30384766 44.60568359 53.42019531 44.64886719 52.50976562 44.69335938 C50.34000377 44.79891536 48.1700209 44.89991071 46 45 C46.83249268 45.34780518 47.66498535 45.69561035 48.52270508 46.05395508 C51.61702829 47.35083578 54.70842729 48.65424782 57.7980957 49.9621582 C59.13455136 50.5263171 60.47211093 51.08786842 61.81079102 51.64672852 C63.73751943 52.45161877 65.66005123 53.26587845 67.58203125 54.08203125 C68.73936768 54.56905518 69.8967041 55.0560791 71.08911133 55.55786133 C75.35067196 57.66916206 75.35067196 57.66916206 77 60 C76.77589301 64.18333056 76.3385104 66.49223439 74 70 C67.10348361 71.16019976 61.42156309 67.98075112 55.23046875 65.22265625 C54.11311844 64.73671494 52.99576813 64.25077362 51.84455872 63.75010681 C48.28686665 62.19946629 44.73725225 60.63121882 41.1875 59.0625 C38.77980216 58.00991116 36.37160411 56.95846571 33.96289062 55.90820312 C16.98813643 48.49406822 16.98813643 48.49406822 14 47 C14.02094727 47.55461914 14.04189453 48.10923828 14.06347656 48.68066406 C14.14683548 51.20359023 14.19871868 53.72622649 14.25 56.25 C14.30027344 57.55904297 14.30027344 57.55904297 14.3515625 58.89453125 C14.45001094 65.34290437 14.45001094 65.34290437 12.234375 68.578125 C9.90003141 70.06361637 8.73681574 70.54276275 6 70.5 C5.34 70.5103125 4.68 70.520625 4 70.53125 C1.05729642 69.74959436 -0.09655764 68.35127797 -2 66 C-2.49447632 63.14744568 -2.49447632 63.14744568 -2.48583984 59.81030273 C-2.4919931 58.55898056 -2.49814636 57.30765839 -2.50448608 56.01841736 C-2.49069071 54.656802 -2.47615678 53.29519394 -2.4609375 51.93359375 C-2.45855212 50.53402374 -2.45764795 49.13445049 -2.4581604 47.73487854 C-2.45503568 44.80522546 -2.43849512 41.87606291 -2.41162109 38.9465332 C-2.37760987 35.19145 -2.36999358 31.43690465 -2.37151146 27.68168545 C-2.37096767 24.7931861 -2.3599997 21.90480431 -2.34550858 19.01634407 C-2.33914541 17.63166251 -2.3352028 16.24696765 -2.33372116 14.86227226 C-2.32938503 12.92823369 -2.31029751 10.99424512 -2.29052734 9.06030273 C-2.28290375 7.95984116 -2.27528015 6.85937958 -2.26742554 5.72557068 C-2 3 -2 3 0 0 Z M14 13 C14 18.94 14 24.88 14 31 C20.7443739 31.04947067 27.48864196 31.08575335 34.2331543 31.10986328 C36.52711833 31.11991528 38.82106957 31.1335589 41.11499023 31.15087891 C44.41393188 31.17516209 47.71270397 31.18649123 51.01171875 31.1953125 C52.03585373 31.20563507 53.05998871 31.21595764 54.11515808 31.22659302 C55.55608574 31.22681961 55.55608574 31.22681961 57.02612305 31.22705078 C58.28854073 31.23371262 58.28854073 31.23371262 59.57646179 31.24050903 C63.4904584 30.85208869 66.21712131 29.78287869 69 27 C69.39501229 24.66761933 69.39501229 24.66761933 69.375 22.0625 C69.41753906 20.74958984 69.41753906 20.74958984 69.4609375 19.41015625 C69.2162273 16.86686094 69.2162273 16.86686094 67.1640625 15.24609375 C63.76071719 13.28640575 61.10445407 12.87636626 57.25317383 12.88647461 C56.29240433 12.88655014 55.33163483 12.88662567 54.3417511 12.88670349 C53.30729355 12.89186478 52.272836 12.89702606 51.20703125 12.90234375 C50.14586594 12.9037587 49.08470062 12.90517365 47.99137878 12.90663147 C44.59839065 12.91223394 41.20546823 12.92478686 37.8125 12.9375 C35.51367283 12.94251468 33.21484462 12.94707764 30.91601562 12.95117188 C25.27731838 12.96220417 19.63867034 12.97947048 14 13 Z " fill="#000000" transform="translate(3,30)"/>
<path d="M0 0 C6.55071041 4.60049891 10.69435122 9.74709973 14 17 C14.4125 17.886875 14.825 18.77375 15.25 19.6875 C18.18191212 28.72756236 17.83540935 38.63370354 13.96484375 47.32421875 C8.60544783 57.47432871 1.69060004 64.38287362 -9.36328125 68.14453125 C-20.49661971 70.76343686 -31.44356998 69.56808574 -41.2421875 63.64453125 C-49.4875694 57.84164927 -55.17827682 50.46785859 -57.58984375 40.58203125 C-59.42845876 29.00751202 -57.56801078 18.65723852 -50.73046875 9.1015625 C-38.23538334 -6.0730559 -17.09534828 -10.37302429 0 0 Z M-15 7 C-14.01 7.495 -14.01 7.495 -13 8 C-12.375 10.0625 -12.375 10.0625 -12 12 C-12 10.35 -12 8.7 -12 7 C-12.99 7 -13.98 7 -15 7 Z M-12 12 C-11 16 -11 16 -11 16 Z M-11 16 C-11 17.65 -11 19.3 -11 21 C-10.67 21 -10.34 21 -10 21 C-10 19.35 -10 17.7 -10 16 C-10.33 16 -10.66 16 -11 16 Z M-10 21 C-9 25 -9 25 -9 25 Z M-9 26 C-8 30 -8 30 -8 30 Z M-46 17 C-45.84341905 19.4998958 -45.62826942 21.97824036 -45.35546875 24.46875 C-45.09666043 27.03976889 -44.94777555 29.51937062 -44.86328125 32.09375 C-44.41346215 38.92929708 -43.48950094 44.02506263 -38.3359375 48.86328125 C-36.8774041 50.02870679 -35.38943852 51.15820682 -33.875 52.25 C-33.15248047 52.78165771 -32.42996094 53.31331543 -31.68554688 53.86108398 C-28.74805753 55.74213654 -26.43232973 57.1341108 -22.88012695 56.80151367 C-20.47867811 56.04139579 -18.28190846 55.06731531 -16 54 C-13.958585 53.1693483 -11.91550757 52.34277457 -9.87109375 51.51953125 C-7.72518055 50.62047893 -5.58066611 49.71808134 -3.4375 48.8125 C-2.33341797 48.34908203 -1.22933594 47.88566406 -0.09179688 47.40820312 C2.60671574 46.27506147 5.30392958 45.1389372 8 44 C4.96074271 40.8262623 2.04352318 38.19342866 -1.6875 35.875 C-4.70585554 33.99803941 -5.97807441 33.03288839 -8 30 C-8.62261719 30.268125 -9.24523437 30.53625 -9.88671875 30.8125 C-20.14680024 35.16266008 -30.57386842 39.06895573 -41 43 C-41.06131104 42.29439941 -41.12262207 41.58879883 -41.18579102 40.86181641 C-41.67408694 35.35018194 -42.20180057 29.85930485 -42.9375 24.375 C-43.09089844 23.18648437 -43.24429687 21.99796875 -43.40234375 20.7734375 C-43.59957031 19.85820312 -43.79679687 18.94296875 -44 18 C-44.66 17.67 -45.32 17.34 -46 17 Z " fill="#000000" transform="translate(352,121)"/>
<path d="M0 0 C0.84840958 -0.00622879 1.69681915 -0.01245758 2.57093811 -0.01887512 C3.94432594 -0.0050605 3.94432594 -0.0050605 5.34545898 0.0090332 C6.29412338 0.0085347 7.24278778 0.00803619 8.22019958 0.00752258 C10.2317819 0.00986474 12.24336706 0.01960157 14.25488281 0.03613281 C17.30553041 0.05953808 20.3552924 0.05671786 23.40600586 0.05004883 C25.36499537 0.05563239 27.32398122 0.06274651 29.28295898 0.0715332 C30.18438126 0.0706218 31.08580353 0.06971039 32.01454163 0.06877136 C41.02053209 0.16739022 49.27995242 1.12294423 56.77905273 6.37231445 C62.92895542 12.84589622 61.99160617 19.62194506 62.02905273 28.12231445 C62.04967773 29.27731445 62.07030273 30.43231445 62.09155273 31.62231445 C62.12190319 38.26906404 61.72873798 43.37415067 58.77905273 49.37231445 C51.77486025 56.37650694 42.92122377 56.52784568 33.57592773 56.57543945 C32.69809631 56.58113953 31.82026489 56.5868396 30.91583252 56.5927124 C29.063448 56.60212706 27.21104699 56.60868227 25.35864258 56.61254883 C22.55186109 56.62223574 19.74581842 56.65328505 16.93920898 56.68481445 C4.33154659 56.75941102 -6.82292476 56.67549051 -16.35375977 47.2668457 C-18.85940743 43.38256763 -18.81525516 40.45766399 -18.72094727 35.93481445 C-18.73641602 35.19682617 -18.75188477 34.45883789 -18.76782227 33.69848633 C-18.73089895 28.50614553 -17.71820351 25.42050833 -14.22094727 21.37231445 C-11.78344727 19.7277832 -11.78344727 19.7277832 -9.22094727 18.55981445 C-8.37532227 18.16149414 -7.52969727 17.76317383 -6.65844727 17.3527832 C-3.06429985 15.90706045 0.12730448 15.25059296 3.99682617 15.16699219 C4.81737488 15.14704697 5.63792358 15.12710175 6.4833374 15.10655212 C7.79760712 15.08148338 7.79760712 15.08148338 9.13842773 15.0559082 C10.04280579 15.03512711 10.94718384 15.01434601 11.87896729 14.99293518 C14.76225329 14.92765505 17.64562883 14.86865494 20.52905273 14.80981445 C22.48609317 14.76660875 24.44312462 14.7229938 26.40014648 14.67895508 C31.19302393 14.57199574 35.98599127 14.47066772 40.77905273 14.37231445 C40.22195114 14.36644821 39.66484955 14.36058197 39.09086609 14.35453796 C33.29949812 14.29067031 27.5086893 14.20626849 21.71777344 14.10986328 C19.55573899 14.07658123 17.39361696 14.0485596 15.23144531 14.02587891 C12.12584056 13.99239338 9.02104076 13.94008045 5.91577148 13.8840332 C4.94693527 13.87764328 3.97809906 13.87125336 2.97990417 13.8646698 C2.07919693 13.84487564 1.17848969 13.82508148 0.25048828 13.8046875 C-0.54227005 13.79358444 -1.33502838 13.78248138 -2.15180969 13.77104187 C-4.76264725 13.26792766 -5.65657065 12.49977071 -7.22094727 10.37231445 C-7.87641789 4.25458866 -7.87641789 4.25458866 -5.96131897 1.67683411 C-3.80530532 0.06076429 -2.67514933 -0.00226065 0 0 Z M-3.22094727 31.37231445 C-3.22094727 34.34231445 -3.22094727 37.31231445 -3.22094727 40.37231445 C2.2748039 43.12770349 6.52914738 43.80745137 12.63452148 43.7355957 C13.87060905 43.73634346 13.87060905 43.73634346 15.13166809 43.73710632 C16.86205474 43.73477881 18.59244563 43.72512902 20.32275391 43.70849609 C22.96930139 43.68478983 25.61484704 43.68795922 28.26147461 43.69458008 C29.94832956 43.6890061 31.63518029 43.68189798 33.32202148 43.6730957 C34.50492012 43.67446281 34.50492012 43.67446281 35.7117157 43.67585754 C41.06639393 43.63391541 41.06639393 43.63391541 45.77905273 41.37231445 C47.10134463 38.72773066 46.87582468 36.69470144 46.84155273 33.74731445 C46.8325293 32.74442383 46.82350586 31.7415332 46.81420898 30.70825195 C46.80260742 29.93739258 46.79100586 29.1665332 46.77905273 28.37231445 C40.62266666 28.29799879 34.46654338 28.24363361 28.30981445 28.20751953 C26.21666921 28.19245977 24.12355537 28.17200774 22.03051758 28.14599609 C19.01692946 28.10948944 16.00375962 28.09255973 12.98999023 28.0793457 C12.05851166 28.06386185 11.12703308 28.04837799 10.16732788 28.03242493 C4.91664613 28.03107362 1.3614004 28.49757102 -3.22094727 31.37231445 Z " fill="#000000" transform="translate(103.220947265625,124.627685546875)"/>
<path d="M0 0 C1.8815918 -0.3742218 1.8815918 -0.3742218 4.19921875 -0.37231445 C5.06772461 -0.37854324 5.93623047 -0.38477203 6.83105469 -0.39118958 C7.77368164 -0.38197983 8.71630859 -0.37277008 9.6875 -0.36328125 C11.14591309 -0.36402901 11.14591309 -0.36402901 12.63378906 -0.36479187 C14.69842564 -0.36244701 16.76306484 -0.35269437 18.82763672 -0.33618164 C21.95957652 -0.31280176 25.09065262 -0.31559127 28.22265625 -0.32226562 C30.23177584 -0.3166814 32.24089186 -0.30956687 34.25 -0.30078125 C35.17643311 -0.30169266 36.10286621 -0.30260406 37.05737305 -0.30354309 C46.3282832 -0.20466411 55.79326683 0.5588782 63 7 C67.30471482 12.79731776 66.48532319 19.25672823 66.44604492 26.14672852 C66.43753725 28.42751403 66.46631465 30.70578982 66.49804688 32.98632812 C66.49965932 34.44791592 66.49908052 35.90950812 66.49609375 37.37109375 C66.49794678 38.69036865 66.4997998 40.00964355 66.50170898 41.36889648 C65.92121658 45.57019258 64.64122623 47.72296838 62 51 C59.81640625 52.42578125 59.81640625 52.42578125 57.5625 53.3125 C56.82128906 53.61800781 56.08007812 53.92351562 55.31640625 54.23828125 C49.83070628 56.04217922 44.61622722 56.17416464 38.89453125 56.203125 C38.01528488 56.20882507 37.13603851 56.21452515 36.23014832 56.22039795 C34.37178745 56.2298242 32.51341005 56.23637247 30.6550293 56.24023438 C27.83937678 56.24990766 25.02446484 56.28094019 22.20898438 56.3125 C10.30353732 56.38317864 -1.52901689 56.31266143 -11 48 C-14.61908786 42.34517522 -14.69988378 36.59057222 -14 30 C-12.96007415 25.37232995 -10.67494991 21.93155121 -6.84567261 19.05366516 C-0.14185758 15.2265637 7.38572072 14.54543283 14.9453125 14.48828125 C15.84120087 14.47033005 16.73708923 14.45237885 17.66012573 14.43388367 C20.48170459 14.3803168 23.3031197 14.34605932 26.125 14.3125 C28.05471004 14.27927943 29.98439861 14.24478549 31.9140625 14.20898438 C36.60925569 14.12462217 41.30440486 14.05755809 46 14 C45.44289841 13.99413376 44.88579681 13.98826752 44.31181335 13.98222351 C38.52044539 13.91835586 32.72963656 13.83395404 26.9387207 13.73754883 C24.77668625 13.70426678 22.61456423 13.67624515 20.45239258 13.65356445 C17.34678782 13.62007892 14.24198802 13.567766 11.13671875 13.51171875 C10.16788254 13.50532883 9.19904633 13.4989389 8.20085144 13.49235535 C7.3001442 13.47256119 6.39943695 13.45276703 5.47143555 13.43237305 C4.67867722 13.42126999 3.88591888 13.41016693 3.06913757 13.39872742 C0.45850516 12.89565274 -0.43872751 12.1299231 -2 10 C-2.38991688 5.63293092 -2.46324069 3.69486103 0 0 Z M1 32 C0.58307147 35.41600593 0.58307147 35.41600593 1 39 C4.343733 42.58257107 8.03805484 42.96294702 12.77124023 43.14526367 C14.28365168 43.15858495 15.79612521 43.16579137 17.30859375 43.16796875 C18.11232925 43.17129715 18.91606476 43.17462555 19.74415588 43.17805481 C21.44116648 43.1831089 23.13818697 43.1854636 24.83520508 43.18530273 C27.42480908 43.18748928 30.01398693 43.205661 32.60351562 43.22460938 C34.25520688 43.22754364 35.90690015 43.22952821 37.55859375 43.23046875 C38.32956894 43.23765427 39.10054413 43.24483978 39.8948822 43.25224304 C43.99839923 43.2348886 47.39928766 43.07575558 51 41 C52.00496852 37.98509443 52.10335303 35.95818308 52.0625 32.8125 C52.05347656 31.91144531 52.04445313 31.01039062 52.03515625 30.08203125 C52.02355469 29.39496094 52.01195312 28.70789063 52 28 C45.84361392 27.92568433 39.68749065 27.87131916 33.53076172 27.83520508 C31.43761647 27.82014531 29.34450264 27.79969329 27.25146484 27.77368164 C24.23787672 27.73717499 21.22470688 27.72024527 18.2109375 27.70703125 C17.27945892 27.69154739 16.34798035 27.67606354 15.38827515 27.66011047 C9.9812038 27.65871892 5.08554661 27.91445339 1 32 Z " fill="#000000" transform="translate(300,44)"/>
<path d="M0 0 C1.02480469 -0.01611328 2.04960937 -0.03222656 3.10546875 -0.04882812 C8.22558029 -0.05208105 12.42994903 0.25837042 17.2578125 2.01953125 C22.07762147 3.6612276 24.84779101 2.81920595 29.53125 1.11230469 C34.16206472 -0.31564609 38.81793991 -0.12010791 43.625 -0.0625 C45.07712891 -0.07990234 45.07712891 -0.07990234 46.55859375 -0.09765625 C53.99428521 -0.06771387 61.5336939 0.54952043 67.59765625 5.21484375 C68.12230469 5.88644531 68.64695312 6.55804688 69.1875 7.25 C69.73535156 7.91902344 70.28320312 8.58804688 70.84765625 9.27734375 C73.6280873 13.70732716 73.31487564 18.57032859 73.36328125 23.65625 C73.371353 24.46235718 73.37942474 25.26846436 73.38774109 26.09899902 C73.40154304 27.80018993 73.41228251 29.50140809 73.42016602 31.20263672 C73.43172255 32.94262805 73.45223199 34.68258294 73.48168945 36.42236328 C73.52427613 38.93807022 73.54051838 41.45272783 73.55078125 43.96875 C73.56828934 44.74488647 73.58579742 45.52102295 73.60383606 46.32067871 C73.58939537 49.91191135 73.43395635 51.90704444 71.22558594 54.80517578 C67.71908227 57.32134891 65.36175975 56.71600093 61.125 56.3125 C59.64 55.3225 59.64 55.3225 58.125 54.3125 C57.78736412 51.33955026 57.63586962 48.56507498 57.61328125 45.5859375 C57.59533005 44.72312164 57.57737885 43.86030579 57.55888367 42.97134399 C57.5046148 40.21011269 57.47083243 37.44905582 57.4375 34.6875 C57.4043415 32.81768397 57.36985322 30.947891 57.33398438 29.078125 C57.24887904 24.48970891 57.18214746 19.90134604 57.125 15.3125 C52.36930718 14.26960772 47.91139232 14.12891355 43.0625 14.125 C42.26005859 14.11275391 41.45761719 14.10050781 40.63085938 14.08789062 C39.85419922 14.08595703 39.07753906 14.08402344 38.27734375 14.08203125 C37.2253479 14.07586792 37.2253479 14.07586792 36.15209961 14.06958008 C33.7996516 14.35148852 32.1742152 15.15207333 30.125 16.3125 C30.1156543 17.41762939 30.10630859 18.52275879 30.09667969 19.66137695 C30.05682019 23.7599322 29.99107363 27.85773358 29.91748047 31.95581055 C29.88924721 33.72980061 29.86804437 35.50391701 29.85400391 37.27807617 C29.83260619 39.82797032 29.78597565 42.37634166 29.734375 44.92578125 C29.73253204 46.11655022 29.73253204 46.11655022 29.73065186 47.33137512 C29.58418283 52.83207989 29.58418283 52.83207989 27.21411133 55.31176758 C23.62158601 57.03266991 21.08944996 56.69006666 17.125 56.3125 C15.40429688 55.29296875 15.40429688 55.29296875 14.125 53.3125 C13.82996051 50.55380587 13.70781805 48.00922329 13.71875 45.25 C13.70791382 44.46230225 13.69707764 43.67460449 13.68591309 42.86303711 C13.64002086 39.49371303 13.62856532 36.12446356 13.61376953 32.75488281 C13.59809013 30.29464163 13.56509232 27.83504742 13.53125 25.375 C13.53427124 24.61243896 13.53729248 23.84987793 13.54040527 23.06420898 C13.48784394 18.99214991 13.48784394 18.99214991 11.88256836 15.33129883 C9.64910241 14.03663937 8.17566102 13.93957307 5.59765625 13.94921875 C4.72302734 13.94986328 3.84839844 13.95050781 2.94726562 13.95117188 C2.03654297 13.96728516 1.12582031 13.98339844 0.1875 14 C-0.71935547 13.99677734 -1.62621094 13.99355469 -2.56054688 13.99023438 C-6.94355216 14.02571124 -10.00448687 14.08995503 -13.875 16.3125 C-13.8843457 17.38209961 -13.89369141 18.45169922 -13.90332031 19.55371094 C-13.94323512 23.5274397 -14.00899721 27.50039544 -14.08251953 31.47363281 C-14.11072067 33.19228169 -14.13193954 34.91106005 -14.14599609 36.62988281 C-14.16743833 39.10288747 -14.21409156 41.57433675 -14.265625 44.046875 C-14.26746796 45.19709137 -14.26746796 45.19709137 -14.26934814 46.37054443 C-14.36675928 49.92958323 -14.58647333 51.93719783 -16.78588867 54.7980957 C-20.30750009 57.35092445 -22.60835193 56.78657201 -26.875 56.3125 C-28.59683228 55.02998352 -28.59683228 55.02998352 -29.875 53.3125 C-30.17370586 50.29820092 -30.29521452 47.49506888 -30.2734375 44.48046875 C-30.27630768 43.61110184 -30.27917786 42.74173492 -30.28213501 41.84602356 C-30.2841766 40.005985 -30.2786401 38.16592479 -30.26611328 36.32592773 C-30.25011872 33.52082175 -30.26592831 30.71716933 -30.28515625 27.91210938 C-30.2831727 26.12239267 -30.2793267 24.33267687 -30.2734375 22.54296875 C-30.27951019 21.70839645 -30.28558289 20.87382416 -30.2918396 20.01396179 C-30.22451905 14.38502448 -29.39590983 9.94190468 -25.33203125 5.703125 C-24.78933594 5.32671875 -24.24664062 4.9503125 -23.6875 4.5625 C-22.89279297 3.98242188 -22.89279297 3.98242188 -22.08203125 3.390625 C-15.00682786 -0.06558055 -7.70980623 -0.02406307 0 0 Z " fill="#000000" transform="translate(206.875,43.6875)"/>
<path d="M0 0 C2.61568533 0.0160576 5.22982107 0.00010483 7.84545898 -0.01904297 C30.39519295 -0.0497497 30.39519295 -0.0497497 38.94506836 7.98876953 C41.7736205 11.18200921 41.38241247 14.55034041 41.42553711 18.59423828 C41.43360886 19.30964783 41.4416806 20.02505737 41.44999695 20.762146 C41.46383544 22.27858052 41.47455866 23.79504616 41.48242188 25.31152344 C41.49958843 27.61861222 41.5434671 29.9242501 41.58764648 32.23095703 C41.59777798 33.70620694 41.60629266 35.181469 41.61303711 36.65673828 C41.6305452 37.34133118 41.64805328 38.02592407 41.66609192 38.73126221 C41.6436922 43.73692564 40.28507533 46.51911103 37.18725586 50.39111328 C32.47025013 54.16678673 27.43646971 55.52091881 21.51049805 55.50463867 C20.58984558 55.50456314 19.66919312 55.50448761 18.72064209 55.50440979 C17.73509338 55.4992485 16.74954468 55.49408722 15.73413086 55.48876953 C14.71877258 55.48735458 13.70341431 55.48593964 12.6572876 55.48448181 C9.41724694 55.47888844 6.1772756 55.46633713 2.93725586 55.45361328 C0.73934019 55.44859743 -1.45857656 55.44403467 -3.65649414 55.43994141 C-9.04193443 55.42892118 -14.42733433 55.41218962 -19.81274414 55.39111328 C-19.78954102 56.30634766 -19.76633789 57.22158203 -19.74243164 58.16455078 C-19.71536133 59.94732422 -19.71536133 59.94732422 -19.68774414 61.76611328 C-19.66454102 62.94947266 -19.64133789 64.13283203 -19.61743164 65.35205078 C-19.81274414 68.39111328 -19.81274414 68.39111328 -21.81274414 70.39111328 C-24.12524414 70.62158203 -24.12524414 70.62158203 -26.81274414 70.57861328 C-28.14305664 70.56894531 -28.14305664 70.56894531 -29.50024414 70.55908203 C-31.81274414 70.39111328 -31.81274414 70.39111328 -33.81274414 69.39111328 C-34.78794267 66.4655177 -34.95009294 64.54450115 -34.97387695 61.49584961 C-34.98828827 60.00333427 -34.98828827 60.00333427 -35.00299072 58.48066711 C-35.0072406 57.40568466 -35.01149048 56.33070221 -35.01586914 55.22314453 C-35.02156921 54.11436447 -35.02726929 53.00558441 -35.03314209 51.86320496 C-35.04259475 49.5137121 -35.04912713 47.16420598 -35.05297852 44.81469727 C-35.06265895 41.235113 -35.0936702 37.65610903 -35.12524414 34.07666016 C-35.13177687 31.79215835 -35.13702628 29.50765244 -35.14086914 27.22314453 C-35.15321594 26.15828323 -35.16556274 25.09342194 -35.17828369 23.99629211 C-35.15716012 16.88186688 -34.69313533 10.62064279 -29.75024414 5.07861328 C-20.35116028 -0.32086043 -10.53149329 -0.0769082 0 0 Z M-18.81274414 15.39111328 C-20.14363524 18.05289549 -19.92543407 20.07850724 -19.91040039 23.05517578 C-19.90717773 24.17666016 -19.90395508 25.29814453 -19.90063477 26.45361328 C-19.89225586 27.62923828 -19.88387695 28.80486328 -19.87524414 30.01611328 C-19.87073242 31.19947266 -19.8662207 32.38283203 -19.86157227 33.60205078 C-19.84975881 36.53178835 -19.83328672 39.461426 -19.81274414 42.39111328 C-13.90455343 42.44056376 -7.9964833 42.47685692 -2.08813477 42.50097656 C-0.07834779 42.51103198 1.93142456 42.52467813 3.94116211 42.54199219 C6.83052174 42.56626052 9.71968788 42.57760099 12.60913086 42.58642578 C13.50718445 42.59674835 14.40523804 42.60707092 15.33050537 42.6177063 C16.59135956 42.61793289 16.59135956 42.61793289 17.87768555 42.61816406 C18.98355011 42.6248259 18.98355011 42.6248259 20.11175537 42.63162231 C22.61618957 42.46104942 22.61618957 42.46104942 26.18725586 40.39111328 C26.18725586 32.14111328 26.18725586 23.89111328 26.18725586 15.39111328 C21.53414991 13.5298709 18.31782654 13.09742785 13.47241211 13.12548828 C12.73905136 13.12357483 12.00569061 13.12166138 11.25010681 13.11968994 C9.70449479 13.11833363 8.15887115 13.12199129 6.61328125 13.13037109 C4.26072299 13.14106344 1.90893094 13.1304653 -0.44360352 13.11767578 C-1.95076664 13.11899778 -3.4579293 13.12156099 -4.96508789 13.12548828 C-5.6621434 13.12143982 -6.35919891 13.11739136 -7.07737732 13.11322021 C-11.34670808 13.15374825 -14.8820819 13.69721612 -18.81274414 15.39111328 Z " fill="#000000" transform="translate(202.812744140625,124.60888671875)"/>
<path d="M0 0 C1.22042244 -0.0049926 1.22042244 -0.0049926 2.46549988 -0.01008606 C4.18085163 -0.01512949 5.89621311 -0.01749519 7.61157227 -0.01733398 C10.21191902 -0.01951569 12.81183777 -0.0376857 15.41210938 -0.05664062 C17.08723815 -0.0595762 18.76236892 -0.0615599 20.4375 -0.0625 C21.20342972 -0.06968552 21.96935944 -0.07687103 22.75849915 -0.08427429 C29.59584212 -0.0558758 36.86336881 0.69012533 42.79296875 4.35546875 C43.41945313 4.72027344 44.0459375 5.08507812 44.69140625 5.4609375 C49.10494376 9.82454812 49.60953078 14.55777342 49.81640625 20.51171875 C49.82433122 22.89713505 49.81607732 25.28265122 49.79296875 27.66796875 C49.80457031 28.86550781 49.81617188 30.06304687 49.828125 31.296875 C49.80315123 38.8139787 49.70201217 44.79009552 44.23046875 50.41796875 C37.09118527 54.86018958 31.01376053 55.59591686 22.79296875 55.4609375 C21.80546631 55.45669266 20.81796387 55.45244781 19.80053711 55.44807434 C16.67272698 55.43139521 13.54558135 55.3937631 10.41796875 55.35546875 C8.28646769 55.340408 6.15495645 55.32672204 4.0234375 55.31445312 C-1.17860889 55.28152715 -6.38027258 55.23143642 -11.58203125 55.16796875 C-11.57042969 55.92722656 -11.55882812 56.68648437 -11.546875 57.46875 C-11.53785156 58.46261719 -11.52882813 59.45648438 -11.51953125 60.48046875 C-11.50792969 61.46660156 -11.49632812 62.45273438 -11.484375 63.46875 C-11.58203125 66.16796875 -11.58203125 66.16796875 -12.58203125 69.16796875 C-15.0597822 70.40684423 -16.81856832 70.33538544 -19.58203125 70.35546875 C-20.46890625 70.36964844 -21.35578125 70.38382812 -22.26953125 70.3984375 C-24.58203125 70.16796875 -24.58203125 70.16796875 -26.58203125 68.16796875 C-26.84945679 65.80389404 -26.84945679 65.80389404 -26.87255859 62.80371094 C-26.8853183 61.68204529 -26.898078 60.56037964 -26.91122437 59.40472412 C-26.91345001 58.1870636 -26.91567566 56.96940308 -26.91796875 55.71484375 C-26.92462555 54.46672913 -26.93128235 53.2186145 -26.93814087 51.93267822 C-26.94828486 49.28619176 -26.95382058 46.64011575 -26.95263672 43.99365234 C-26.95243406 40.61300771 -26.9796728 37.23320881 -27.01418114 33.85276413 C-27.04186824 30.61932282 -27.04060174 27.38588747 -27.04296875 24.15234375 C-27.05733978 22.94278015 -27.07171082 21.73321655 -27.08651733 20.48699951 C-27.05193359 14.11193079 -26.98493039 9.96192837 -22.58203125 5.16796875 C-20.65234375 3.7421875 -20.65234375 3.7421875 -18.70703125 2.85546875 C-18.07023437 2.54996094 -17.4334375 2.24445313 -16.77734375 1.9296875 C-11.29411065 0.02714221 -5.73117831 0.00826136 0 0 Z M-11.58203125 16.16796875 C-11.66951332 18.09464382 -11.68900459 20.02448736 -11.6796875 21.953125 C-11.67646484 23.12294922 -11.67324219 24.29277344 -11.66992188 25.49804688 C-11.66154297 26.72974609 -11.65316406 27.96144531 -11.64453125 29.23046875 C-11.64001953 30.46603516 -11.63550781 31.70160156 -11.63085938 32.97460938 C-11.61902733 36.03910992 -11.60254298 39.10351596 -11.58203125 42.16796875 C-5.67385607 42.24214427 0.23404786 42.29658309 6.14257812 42.33276367 C8.15239178 42.34784701 10.16217254 42.36831647 12.171875 42.39428711 C15.06128051 42.43069019 17.95025071 42.44769963 20.83984375 42.4609375 C21.73789734 42.47642136 22.63595093 42.49190521 23.56121826 42.50785828 C27.12009136 42.50881764 29.72741941 42.48913766 32.98120117 40.97583008 C35.94912386 37.24134113 35.02767155 32.22720378 34.98046875 27.66796875 C35.00431641 26.60964844 35.02816406 25.55132812 35.05273438 24.4609375 C35.05080078 23.44644531 35.04886719 22.43195313 35.046875 21.38671875 C35.0476001 20.45794922 35.0483252 19.52917969 35.04907227 18.57226562 C34.61318383 16.00317797 34.61318383 16.00317797 32.37670898 14.36450195 C28.68318985 12.87081953 25.36888556 12.75483305 21.44921875 12.8046875 C20.69129028 12.804189 19.93336182 12.80369049 19.15246582 12.80317688 C17.55555591 12.80550956 15.95864177 12.81519044 14.36181641 12.83178711 C11.92577021 12.85539315 9.4908192 12.85234042 7.0546875 12.84570312 C5.49869143 12.85128028 3.94269995 12.8583904 2.38671875 12.8671875 C1.66262817 12.86627609 0.9385376 12.86536469 0.19250488 12.86442566 C-4.00730232 12.9229349 -8.43616411 13.02210161 -11.58203125 16.16796875 Z " fill="#000000" transform="translate(399.58203125,124.83203125)"/>
<path d="M0 0 C1.3303125 0.02126953 1.3303125 0.02126953 2.6875 0.04296875 C4.0178125 0.05263672 4.0178125 0.05263672 5.375 0.0625 C7.6875 0.23046875 7.6875 0.23046875 9.6875 1.23046875 C10.69246852 4.24537432 10.79085303 6.27228567 10.75 9.41796875 C10.74097656 10.31902344 10.73195313 11.22007813 10.72265625 12.1484375 C10.71105469 12.83550781 10.69945312 13.52257813 10.6875 14.23046875 C11.70996826 14.21999512 12.73243652 14.20952148 13.78588867 14.19873047 C17.64197171 14.16205845 21.49803993 14.13939974 25.35424805 14.12060547 C27.01150113 14.11065392 28.66873715 14.09708782 30.32592773 14.07958984 C60.07703194 13.77371215 60.07703194 13.77371215 67.11328125 20.6171875 C71.91155099 25.98313985 71.85987648 30.64968026 71.92578125 37.57421875 C71.933853 38.38032593 71.94192474 39.18643311 71.95024109 40.01696777 C71.96404304 41.71815868 71.97478251 43.41937684 71.98266602 45.12060547 C71.99422255 46.8605968 72.01473199 48.60055169 72.04418945 50.34033203 C72.08677613 52.85603897 72.10301838 55.37069658 72.11328125 57.88671875 C72.13078934 58.66285522 72.14829742 59.4389917 72.16633606 60.23864746 C72.15189786 63.82926082 71.99737705 65.82416338 69.78808594 68.72094727 C66.25338319 71.26105269 63.95964151 70.70515114 59.6875 70.23046875 C57.96679688 69.20922852 57.96679688 69.20922852 56.6875 67.23046875 C56.3925412 64.46036391 56.27031785 61.90343723 56.28125 59.1328125 C56.27041382 58.34274307 56.25957764 57.55267365 56.24841309 56.73866272 C56.20249142 53.35830642 56.19103904 49.97802477 56.17626953 46.59741211 C56.16061999 44.12976386 56.12763335 41.6627666 56.09375 39.1953125 C56.09677124 38.42759018 56.09979248 37.65986786 56.10290527 36.86888123 C56.1033726 34.48735347 56.1033726 34.48735347 55.6875 31.23046875 C50.51263379 27.78055795 45.17625319 28.04355186 39.10546875 27.9140625 C38.29128983 27.8932814 37.4771109 27.87250031 36.63825989 27.85108948 C34.05058821 27.78597412 31.46281947 27.72688667 28.875 27.66796875 C27.11522455 27.62474733 25.35545872 27.5811319 23.59570312 27.53710938 C19.29306691 27.43033195 14.99033357 27.32895857 10.6875 27.23046875 C10.70844727 28.39094727 10.72939453 29.55142578 10.75097656 30.74707031 C10.82341807 35.05570113 10.86931471 39.3642782 10.90722656 43.67333984 C10.92733261 45.53768976 10.9546218 47.40197669 10.98925781 49.26611328 C11.03782121 51.94709823 11.06047838 54.62724898 11.078125 57.30859375 C11.09877014 58.141026 11.11941528 58.97345825 11.14068604 59.83111572 C11.14292816 65.62342655 11.14292816 65.62342655 8.7902832 68.75927734 C5.27009066 71.22214513 2.90948469 70.63256253 -1.3125 70.23046875 C-2.3025 69.57046875 -3.2925 68.91046875 -4.3125 68.23046875 C-4.6867218 65.49780273 -4.6867218 65.49780273 -4.68481445 61.9765625 C-4.69104324 60.66179932 -4.69727203 59.34703613 -4.70368958 57.99243164 C-4.69500178 56.55094017 -4.68568383 55.10945238 -4.67578125 53.66796875 C-4.67526281 52.19588217 -4.6757799 50.72379488 -4.67729187 49.25170898 C-4.67720208 46.16477133 -4.66676017 43.07809449 -4.64868164 39.99121094 C-4.62599403 36.0297297 -4.6254496 32.06862976 -4.63219929 28.10710144 C-4.63553711 25.06681923 -4.62891276 22.02662431 -4.61907005 18.98635864 C-4.61521451 17.52548682 -4.6140713 16.0646053 -4.6156559 14.60372925 C-4.61602579 12.56392241 -4.60194638 10.52412826 -4.5871582 8.484375 C-4.58024712 6.74136108 -4.58024712 6.74136108 -4.57319641 4.96313477 C-4.24141815 1.48537617 -3.55606145 0.35440477 0 0 Z " fill="#000000" transform="translate(377.3125,29.76953125)"/>
<path d="M0 0 C1.3303125 0.00773437 1.3303125 0.00773437 2.6875 0.015625 C3.574375 0.01046875 4.46125 0.0053125 5.375 0 C7.6875 0.265625 7.6875 0.265625 9.6875 2.265625 C9.89664647 5.03516854 9.9886119 7.71288612 9.99609375 10.484375 C10.02124668 12.15495151 10.04664481 13.82552435 10.07226562 15.49609375 C10.10106433 18.1362214 10.1250756 20.77628535 10.14379883 23.41650391 C10.16538049 25.96029375 10.20480648 28.50334012 10.24609375 31.046875 C10.24620956 31.83960815 10.24632538 32.63234131 10.2464447 33.44909668 C10.25669704 35.90750988 10.25669704 35.90750988 10.6875 39.265625 C17.28381338 43.66316725 25.91492804 42.44917888 33.5625 42.453125 C34.80386719 42.46537109 36.04523438 42.47761719 37.32421875 42.49023438 C39.13986328 42.49313477 39.13986328 42.49313477 40.9921875 42.49609375 C42.6316333 42.50225708 42.6316333 42.50225708 44.30419922 42.50854492 C48.31219696 42.22077196 51.81623984 41.33094724 55.6875 40.265625 C55.70208252 39.19602539 55.71666504 38.12642578 55.73168945 37.02441406 C55.78972301 33.05076906 55.86695519 29.07768775 55.94995117 25.10449219 C55.98317681 23.38583535 56.01121616 21.66707001 56.03393555 19.94824219 C56.06752561 17.47544177 56.11984178 15.00363344 56.17578125 12.53125 C56.18536613 11.38103363 56.18536613 11.38103363 56.19514465 10.20758057 C56.28397873 6.97430032 56.48446739 4.63128465 58.06884766 1.77783203 C60.30647441 -0.31264461 61.73245207 -0.20714533 64.75 -0.109375 C65.62785156 -0.09648438 66.50570312 -0.08359375 67.41015625 -0.0703125 C69.6875 0.265625 69.6875 0.265625 71.6875 2.265625 C71.93706112 5.34108763 72.06422021 8.32276084 72.09375 11.40234375 C72.10515015 12.31514603 72.11655029 13.2279483 72.1282959 14.16841125 C72.14721205 16.10433304 72.1602703 18.04031946 72.16796875 19.97631836 C72.18731434 22.92482821 72.24930179 25.8705087 72.3125 28.81835938 C72.32556732 30.7005043 72.33606542 32.58266915 72.34375 34.46484375 C72.3684436 35.34113937 72.39313721 36.217435 72.4185791 37.12028503 C72.37753369 42.8227386 71.19671368 45.79217839 67.24510193 49.93016052 C65.06019792 51.80346437 62.98611393 52.77491697 60.25 53.640625 C58.92162109 54.08535156 58.92162109 54.08535156 57.56640625 54.5390625 C49.57478717 56.5559433 41.62233469 56.44898707 33.4375 56.453125 C32.17808594 56.46537109 30.91867188 56.47761719 29.62109375 56.49023438 C7.58149886 56.52456396 7.58149886 56.52456396 -0.3125 50.265625 C-4.62833036 45.12085948 -4.88075744 41.14504041 -4.7734375 34.5625 C-4.77252106 33.64349915 -4.77160461 32.72449829 -4.7706604 31.77764893 C-4.76464066 29.84455162 -4.7489438 27.91146293 -4.72412109 25.97851562 C-4.68744743 23.011372 -4.68310312 20.04547237 -4.68359375 17.078125 C-4.67376822 15.19790582 -4.66211368 13.31769511 -4.6484375 11.4375 C-4.64621185 10.54794617 -4.64398621 9.65839233 -4.64169312 8.74188232 C-4.51394313 0.51849347 -4.51394313 0.51849347 0 0 Z " fill="#000000" transform="translate(98.3125,43.734375)"/>
<path d="M0 0 C2.49609375 -0.3984375 2.49609375 -0.3984375 5.4375 -0.375 C6.40558594 -0.38273437 7.37367187 -0.39046875 8.37109375 -0.3984375 C11.45342558 0.06872126 12.13756079 0.56281497 14 3 C14.39872742 5.25895691 14.39872742 5.25895691 14.43237305 7.93041992 C14.46206429 9.43163643 14.46206429 9.43163643 14.49235535 10.96318054 C14.49874527 12.04138565 14.50513519 13.11959076 14.51171875 14.23046875 C14.53864555 15.88880486 14.53864555 15.88880486 14.56611633 17.5806427 C14.62035427 21.11622285 14.65415892 24.65166696 14.6875 28.1875 C14.72066109 30.58270128 14.7551496 32.97788457 14.79101562 35.37304688 C14.87608846 41.24857594 14.94438118 47.12412232 15 53 C22.31816997 57.10523703 31.79444864 56.15611602 39.96875 56.24609375 C42.02344265 56.27897651 44.07813005 56.31218892 46.1328125 56.34570312 C49.33688362 56.39340335 52.54092542 56.43799571 55.74511719 56.47680664 C58.86152543 56.51631774 61.97755062 56.56784116 65.09375 56.62109375 C66.05825073 56.6295079 67.02275146 56.63792206 68.01647949 56.64659119 C69.34926941 56.67155418 69.34926941 56.67155418 70.70898438 56.69702148 C71.88285706 56.71248268 71.88285706 56.71248268 73.08044434 56.72825623 C75 57 75 57 77 59 C77.30078125 61.09375 77.30078125 61.09375 77.3125 63.5 C77.32925781 64.2940625 77.34601563 65.088125 77.36328125 65.90625 C77.24339844 66.5971875 77.12351562 67.288125 77 68 C73.71892601 70.18738266 72.75748071 70.25209765 68.95288086 70.25878906 C67.40998634 70.26824554 67.40998634 70.26824554 65.83592224 70.27789307 C64.72346634 70.2738446 63.61101044 70.26979614 62.46484375 70.265625 C61.31641495 70.26753845 60.16798615 70.2694519 58.98475647 70.27142334 C56.54948712 70.27278585 54.11421052 70.26908485 51.67895508 70.26074219 C47.9765557 70.25011213 44.27464917 70.2606 40.57226562 70.2734375 C38.20312394 70.27211458 35.83398256 70.26954945 33.46484375 70.265625 C32.36655746 70.26967346 31.26827118 70.27372192 30.13670349 70.27789307 C20.25306655 70.21858793 9.98647579 69.78433505 2.49609375 62.546875 C-1.46387936 58.07921303 -2.12039323 54.70621736 -2.14526367 48.91186523 C-2.15164352 47.90079208 -2.15802338 46.88971893 -2.16459656 45.8480072 C-2.16570938 44.76250076 -2.1668222 43.67699432 -2.16796875 42.55859375 C-2.17129715 41.43937027 -2.17462555 40.32014679 -2.17805481 39.16700745 C-2.18311481 36.80250459 -2.18546342 34.4379946 -2.18530273 32.07348633 C-2.18749368 28.44796084 -2.20567163 24.82273746 -2.22460938 21.19726562 C-2.22754253 18.90104271 -2.22952785 16.60481835 -2.23046875 14.30859375 C-2.24124702 12.67729774 -2.24124702 12.67729774 -2.25224304 11.01304626 C-2.24916641 10.00512527 -2.24608978 8.99720428 -2.24291992 7.95874023 C-2.24434494 7.07145737 -2.24576996 6.1841745 -2.24723816 5.27000427 C-2 3 -2 3 0 0 Z " fill="#000000" transform="translate(3,111)"/>
<path d="M0 0 C1.31291016 0.04253906 1.31291016 0.04253906 2.65234375 0.0859375 C3.53019531 0.09882812 4.40804688 0.11171875 5.3125 0.125 C7.58984375 0.4609375 7.58984375 0.4609375 9.58984375 2.4609375 C9.78515625 5.28125 9.78515625 5.28125 9.71484375 8.5859375 C9.69679688 9.68164062 9.67875 10.77734375 9.66015625 11.90625 C9.63695312 12.74929687 9.61375 13.59234375 9.58984375 14.4609375 C10.42177246 14.4295166 10.42177246 14.4295166 11.27050781 14.39746094 C13.79343398 14.31410202 16.31607024 14.26221882 18.83984375 14.2109375 C19.71253906 14.17742187 20.58523438 14.14390625 21.484375 14.109375 C27.93924782 14.01082732 27.93924782 14.01082732 31.17578125 16.25 C33.20272399 19.41919777 32.99829714 21.78485703 32.58984375 25.4609375 C30.58984375 27.4609375 30.58984375 27.4609375 28.43505859 27.68798828 C27.56574707 27.67751465 26.69643555 27.66704102 25.80078125 27.65625 C24.85976563 27.64980469 23.91875 27.64335937 22.94921875 27.63671875 C21.964375 27.61996094 20.97953125 27.60320312 19.96484375 27.5859375 C18.97226562 27.57691406 17.9796875 27.56789062 16.95703125 27.55859375 C14.50106241 27.53497866 12.04557207 27.50204549 9.58984375 27.4609375 C9.6055542 28.69247559 9.62126465 29.92401367 9.63745117 31.19287109 C9.69164964 35.75123585 9.72615697 40.309572 9.75463867 44.86816406 C9.76974837 46.84314763 9.79023703 48.81809754 9.81616211 50.79296875 C9.85244994 53.62768856 9.86954791 56.46196576 9.8828125 59.296875 C9.89829636 60.18337738 9.91378021 61.06987976 9.92973328 61.98324585 C9.92995987 62.80394562 9.93018646 63.62464539 9.93041992 64.47021484 C9.93708176 65.19413422 9.94374359 65.91805359 9.9506073 66.66390991 C9.58984375 68.4609375 9.58984375 68.4609375 6.58984375 70.4609375 C4.65234375 70.7265625 4.65234375 70.7265625 2.58984375 70.7109375 C1.90921875 70.71609375 1.22859375 70.72125 0.52734375 70.7265625 C-1.41015625 70.4609375 -1.41015625 70.4609375 -4.41015625 68.4609375 C-5.70502641 64.57632703 -5.53341665 60.90209794 -5.5078125 56.85546875 C-5.50639755 56.01626389 -5.5049826 55.17705902 -5.50352478 54.31242371 C-5.4979284 51.63272534 -5.4853766 48.9531106 -5.47265625 46.2734375 C-5.46764078 44.45638142 -5.46307796 42.63932402 -5.45898438 40.82226562 C-5.44796016 36.36845737 -5.43069803 31.91471161 -5.41015625 27.4609375 C-6.35890625 27.5228125 -7.30765625 27.5846875 -8.28515625 27.6484375 C-9.31640625 27.5865625 -10.34765625 27.5246875 -11.41015625 27.4609375 C-13.87959154 23.75678457 -13.87928714 21.83949245 -13.41015625 17.4609375 C-11.66015625 15.5234375 -11.66015625 15.5234375 -9.41015625 14.4609375 C-8.09015625 14.4609375 -6.77015625 14.4609375 -5.41015625 14.4609375 C-5.44496094 13.78546875 -5.47976562 13.11 -5.515625 12.4140625 C-5.54269531 11.52203125 -5.56976563 10.63 -5.59765625 9.7109375 C-5.63246094 8.82921875 -5.66726562 7.9475 -5.703125 7.0390625 C-5.25105786 3.06087169 -4.07571393 0.77947203 0 0 Z " fill="#000000" transform="translate(257.41015625,110.5390625)"/>
<path d="M0 0 C0 0.66 0 1.32 0 2 C1.32 2.33 2.64 2.66 4 3 C4 3.66 4 4.32 4 5 C5.32 5.33 6.64 5.66 8 6 C5.94661753 10.10676495 -0.2473942 11.24240592 -4.33642578 12.90551758 C-6.23448678 13.68116052 -8.12292257 14.47749879 -10.01171875 15.27539062 C-11.20925781 15.76587891 -12.40679687 16.25636719 -13.640625 16.76171875 C-15.28853027 17.4417395 -15.28853027 17.4417395 -16.96972656 18.13549805 C-20.16329022 19.04658481 -21.86091663 18.95535735 -25 18 C-25 17.34 -25 16.68 -25 16 C-26.32 15.67 -27.64 15.34 -29 15 C-29 14.34 -29 13.68 -29 13 C-30.32 12.67 -31.64 12.34 -33 12 C-33 11.34 -33 10.68 -33 10 C-29.11047696 8.39852139 -25.21451038 6.8142572 -21.31176758 5.24536133 C-19.9859878 4.70964204 -18.66205785 4.16932042 -17.34008789 3.62426758 C-15.43587231 2.84009456 -13.5255452 2.0728944 -11.61328125 1.30859375 C-9.89298706 0.60947876 -9.89298706 0.60947876 -8.13793945 -0.10375977 C-4.88344833 -1.03328882 -3.19305413 -0.98589796 0 0 Z " fill="#000000" transform="translate(348,156)"/>
</svg>
