<?xml version="1.0" encoding="UTF-8"?>
<svg version="1.1" xmlns="http://www.w3.org/2000/svg" width="300" height="92">
<path d="M0 0 C0.4125 0.66 0.825 1.32 1.25 2 C2.80173617 4.22242056 2.80173617 4.22242056 5.18359375 4.265625 C7.46706597 4.25137556 9.72323958 4.17183098 12 4 C12.33 3.34 12.66 2.68 13 2 C13.66 2 14.32 2 15 2 C15 1.34 15 0.68 15 0 C18.73487777 0.4979837 20.81237635 0.87491756 24 3 C24.680625 4.7325 24.680625 4.7325 25.375 6.5 C26.65466785 10.05203379 26.65466785 10.05203379 29.25 11.5 C32.1342549 12.1883336 32.1342549 12.1883336 35.5625 11.375 C39 11 39 11 41.5 12.4375 C43.36765349 15.6280747 42.83604032 17.49739067 42.1640625 21.03515625 C41.91587992 24.00743808 43.28687088 25.6701444 45 28 C45 28.66 45 29.32 45 30 C45.94875 29.938125 46.8975 29.87625 47.875 29.8125 C48.90625 29.874375 49.9375 29.93625 51 30 C53.31361802 33.47042703 53.51020728 34.91834173 53 39 C52.35160156 39.43441406 51.70320313 39.86882813 51.03515625 40.31640625 C48.74428654 41.86859419 48.74428654 41.86859419 48.34765625 44.71484375 C48.20650391 46.31005859 48.20650391 46.31005859 48.0625 47.9375 C47.20947133 54.90259645 44.98076128 60.68579195 42 67 C41.34 67 40.68 67 40 67 C39.9175 67.86625 39.835 68.7325 39.75 69.625 C38.39800877 75.70896052 34.61045449 79.95179606 30 84 C23.52661845 87.11115302 16.78221494 86.93605068 9.890625 85.23046875 C2.45657086 82.61375566 -4.01356097 78.74994229 -10.53222656 74.39111328 C-17.20578308 69.97404675 -23.58498608 69.03303323 -31.515625 70.44921875 C-33.68793021 70.93081472 -35.84626685 71.44162474 -38 72 C-36.7508258 68.54074837 -35.32472205 65.85306797 -33 63 C-33.804375 62.525625 -34.60875 62.05125 -35.4375 61.5625 C-38 60 -38 60 -39 59 C-39.3125 55.625 -39.3125 55.625 -39 52 C-38.34 51.525625 -37.68 51.05125 -37 50.5625 C-34.8423734 49.21901876 -34.8423734 49.21901876 -34.59375 47.15234375 C-34.49933985 44.98484408 -34.53469646 43.12071038 -35 41 C-36.9600281 39.36323743 -36.9600281 39.36323743 -39 38 C-39.5 35.0625 -39.5 35.0625 -39 32 C-37.3125 29.625 -37.3125 29.625 -35 28 C-32.25 27.75 -32.25 27.75 -30 28 C-27.88091282 23.89426859 -27.85336425 20.48905519 -28.02734375 15.98828125 C-28 14 -28 14 -27 12 C-26.34 12 -25.68 12 -25 12 C-25 11.34 -25 10.68 -25 10 C-24.33613281 10.10699219 -23.67226563 10.21398438 -22.98828125 10.32421875 C-17.42908056 11.08338944 -17.42908056 11.08338944 -12 10 C-9.3144406 7.3144406 -8.93950026 4.62378672 -8 1 C-4.97923697 -0.00692101 -3.1408885 -0.39261106 0 0 Z " fill="#12F421" transform="translate(42,3)"/>
<path d="M0 0 C7.06455888 5.16141255 13.33702555 11.09453869 15 20 C15.09349326 22.3318318 15.12994428 24.66629991 15.125 27 C15.12886719 28.8253125 15.12886719 28.8253125 15.1328125 30.6875 C15.02580554 33.35637959 14.90320203 35.50431017 14 38 C10.62883396 40.59320464 7.09818116 40.15762235 3 40 C3.33 38.35 3.66 36.7 4 35 C7.00419641 33.9986012 9.87709365 33.48578543 13 33 C13.33 31.02 13.66 29.04 14 27 C12.68 27.33 11.36 27.66 10 28 C10.495 26.515 10.495 26.515 11 25 C7.95071844 26.06530151 7.95071844 26.06530151 5 28 C4.02525184 31.08961458 4.02525184 31.08961458 4 34 C3.67 34 3.34 34 3 34 C2.65816797 27.7330794 3.55181496 22.79699775 6 17 C6.495 16.505 6.495 16.505 7 16 C7.25003964 12.54178598 7.25003964 12.54178598 7 9 C5.12061828 6.70172688 5.12061828 6.70172688 2.0625 6.6875 C-0.91651868 6.79068655 -0.91651868 6.79068655 -2.9375 8.0625 C-4.62228991 11.13476395 -3.91472651 13.78040341 -3 17 C-2.33320356 18.67505718 -1.64434267 20.34144416 -0.9375 22 C0.88349843 26.29939702 1.40267936 29.36918731 1 34 C0.34 34 -0.32 34 -1 34 C-1.495 30.535 -1.495 30.535 -2 27 C-3.32 26.67 -4.64 26.34 -6 26 C-6 25.34 -6 24.68 -6 24 C-6.66 24 -7.32 24 -8 24 C-7.34 25.32 -6.68 26.64 -6 28 C-6.99 28.33 -7.98 28.66 -9 29 C-8.51792644 31.50358872 -8.51792644 31.50358872 -7 34 C-4.6859378 34.73075648 -2.35171131 35.40138258 0 36 C0.33 36.99 0.66 37.98 1 39 C-5.3805544 38.34663123 -10.57125058 35.60591715 -16.27929688 32.8828125 C-20.93128133 30.72787803 -24.88176787 29.43617424 -30 29 C-28.515 28.505 -28.515 28.505 -27 28 C-27.33 25.36 -27.66 22.72 -28 20 C-26.68 20 -25.36 20 -24 20 C-24 19.01 -24 18.02 -24 17 C-24.99 17 -25.98 17 -27 17 C-26.34 15.68 -25.68 14.36 -25 13 C-19.59950264 13.31767632 -17.47662935 16.19996327 -14 20 C-13.34 19.67 -12.68 19.34 -12 19 C-12.58910156 18.48050781 -13.17820312 17.96101563 -13.78515625 17.42578125 C-14.53667969 16.72839844 -15.28820312 16.03101562 -16.0625 15.3125 C-16.81660156 14.62800781 -17.57070313 13.94351563 -18.34765625 13.23828125 C-20 11 -20 11 -19.74609375 8.23046875 C-19.49988281 7.49441406 -19.25367187 6.75835937 -19 6 C-19.66 6 -20.32 6 -21 6 C-23 6 -25 6 -27 6 C-26.938125 6.928125 -26.87625 7.85625 -26.8125 8.8125 C-27 12 -27 12 -28.5 13.875 C-28.995 14.24625 -29.49 14.6175 -30 15 C-30 13.68 -30 12.36 -30 11 C-31.0725 11.391875 -32.145 11.78375 -33.25 12.1875 C-37 13 -37 13 -39.4375 11.625 C-39.953125 11.08875 -40.46875 10.5525 -41 10 C-40.61561078 7.522825 -40.24543012 6.2504389 -38.46875 4.4375 C-26.34378435 -4.41564952 -13.92345676 -7.60200413 0 0 Z " fill="#F2F9F2" transform="translate(65,21)"/>
<path d="M0 0 C-0.66 0.66 -1.32 1.32 -2 2 C-2.08647997 5.02679893 -1.33724887 6.61111494 0.6328125 8.8828125 C2.38458571 10.63458571 4.1642143 12.33676857 6 14 C5.67 14.66 5.34 15.32 5 16 C2.20080129 14.81572362 0.21949739 13.34046715 -2 11.3125 C-4.67429084 8.7475581 -4.67429084 8.7475581 -7.3125 9.0625 C-9.18189338 9.89321682 -9.18189338 9.89321682 -10 12 C-9.01 12 -8.02 12 -7 12 C-7 12.99 -7 13.98 -7 15 C-8.32 15 -9.64 15 -11 15 C-10.67 17.64 -10.34 20.28 -10 23 C-11.65 23 -13.3 23 -15 23 C-15 23.66 -15 24.32 -15 25 C-16.69270833 25.68359375 -18.38541667 26.3671875 -20.078125 27.05078125 C-22.27158973 28.13413883 -24.08381209 29.4865507 -26 31 C-25.17242187 30.88398437 -24.34484375 30.76796875 -23.4921875 30.6484375 C-11.15231803 29.71561799 -1.95204893 34.44048 8.87792969 39.96850586 C14.68100986 42.78926216 20.67443141 42.4590511 27 42 C30.52248006 40.74505538 30.52248006 40.74505538 33 39 C33.99 38.67 34.98 38.34 36 38 C36.33 37.01 36.66 36.02 37 35 C37.66 35 38.32 35 39 35 C37.8417288 39.7550081 37.01059247 43.1466108 33.1875 46.375 C32.135625 46.91125 31.08375 47.4475 30 48 C29.08089844 48.51820312 28.16179687 49.03640625 27.21484375 49.5703125 C20.79694268 52.4244459 13.48861433 51.99918697 6.80859375 50.0859375 C0.78926629 47.65309328 -4.89565804 44.55135083 -10.52734375 41.33203125 C-15.93955317 38.41644924 -20.17688388 37.73243877 -26.3125 37.875 C-27.05306641 37.88402344 -27.79363281 37.89304688 -28.55664062 37.90234375 C-30.37123467 37.92575787 -32.18566071 37.96162385 -34 38 C-32.625 36 -32.625 36 -31 34 C-30.34 34 -29.68 34 -29 34 C-29.33 33.071875 -29.66 32.14375 -30 31.1875 C-32.18299642 23.35718675 -31.74464775 16.14039483 -28.08984375 8.8828125 C-26.8743059 6.78285106 -25.59407162 4.83318236 -24 3 C-23.484375 3.680625 -22.96875 4.36125 -22.4375 5.0625 C-20.02745496 7.42428622 -20.02745496 7.42428622 -16.25 6.75 C-15.1775 6.5025 -14.105 6.255 -13 6 C-12.67 6.66 -12.34 7.32 -12 8 C-11.814375 6.88625 -11.62875 5.7725 -11.4375 4.625 C-10 1 -10 1 -6.5625 -0.5 C-3 -1 -3 -1 0 0 Z " fill="#085CA2" transform="translate(48,26)"/>
<path d="M0 0 C1.875 1.0625 1.875 1.0625 3 3 C3.63550583 8.50771718 2.24915766 12.03311017 0 17 C0 18.32 0 19.64 0 21 C1.98 20.34 3.96 19.68 6 19 C6.495 19.99 6.495 19.99 7 21 C7.66 21 8.32 21 9 21 C8.6875 23.875 8.6875 23.875 8 27 C4.77208445 29.1519437 3.71599191 29.20086443 0 29 C-0.66 30.65 -1.32 32.3 -2 34 C4.93225584 32.78043647 11.88538291 31.11461709 17 26 C18.485 26.495 18.485 26.495 20 27 C19.1875 30.4375 19.1875 30.4375 18 34 C16.515 34.495 16.515 34.495 15 35 C14.21625 35.804375 13.4325 36.60875 12.625 37.4375 C8.46139868 41.50196795 4.67094122 42.31672119 -1.0625 42.4375 C-9.42201147 42.29645088 -15.82661559 39.26146592 -23.078125 35.33203125 C-32.02594751 30.69282771 -39.17495871 30.31893167 -49 31 C-46.42215154 28.35247996 -44.08351902 26.05567935 -41 24 C-39.68 24 -38.36 24 -37 24 C-37 23.34 -37 22.68 -37 22 C-29.67250423 22.41574444 -24.25918263 24.31999477 -17.6875 27.5 C-15.94273401 28.32572808 -14.19668599 29.14875398 -12.44921875 29.96875 C-11.68955811 30.33419922 -10.92989746 30.69964844 -10.1472168 31.07617188 C-8.10685544 31.95402604 -6.16682958 32.53056634 -4 33 C-5.74681993 29.6376178 -5.74681993 29.6376178 -9.5 29.1875 C-10.655 28.795625 -11.81 28.40375 -13 28 C-14.4375 24.875 -14.4375 24.875 -15 22 C-14.01 21.67 -13.02 21.34 -12 21 C-12.495 19.515 -12.495 19.515 -13 18 C-12.34 18 -11.68 18 -11 18 C-11 18.66 -11 19.32 -11 20 C-9.35 20.33 -7.7 20.66 -6 21 C-6 23.31 -6 25.62 -6 28 C-5.34 28 -4.68 28 -4 28 C-4.38265937 23.59941726 -5.27834752 20.07956784 -7 16 C-8.70674808 11.87117559 -10 8.49379186 -10 4 C-7.33590339 -0.15599071 -4.77534506 -0.7112216 0 0 Z " fill="#F1BB27" transform="translate(70,27)"/>
<path d="M0 0 C2.05812497 1.03831902 4.12126227 2.06626283 6.18481445 3.09375 C7.62723151 3.8140742 9.06725195 4.53922081 10.50463867 5.26953125 C15.92644346 8.01813515 19.73512775 9.1723339 25.8125 9.25 C27.61654297 9.28867188 27.61654297 9.28867188 29.45703125 9.328125 C33.34328723 8.96820714 35.6399885 7.93071791 39 6 C40.33333333 5.33333333 41.66666667 4.66666667 43 4 C41.35494085 10.90924843 38.79823985 15.72823554 33 20 C26.56313726 23.14456573 19.753792 22.92901636 12.890625 21.23046875 C5.45657086 18.61375566 -1.01356097 14.74994229 -7.53222656 10.39111328 C-14.20578308 5.97404675 -20.58498608 5.03303323 -28.515625 6.44921875 C-30.68793021 6.93081472 -32.84626685 7.44162474 -35 8 C-33.61669064 3.96534771 -32.11378408 0.95410285 -29 -2 C-19.18476416 -5.96699115 -9.09424057 -4.83339579 0 0 Z " fill="#08B30E" transform="translate(39,67)"/>
<path d="M0 0 C12.32305359 -0.49292214 12.32305359 -0.49292214 15.4140625 1.7578125 C17.16937164 4.23945646 17.40684527 5.15998773 17.125 8.125 C17.08375 9.40375 17.0425 10.6825 17 12 C17.66 12.66 18.32 13.32 19 14 C20.95826721 11.01597378 22.40576624 8.08937917 23.625 4.75 C25 1 25 1 26 0 C27.99958364 -0.04080783 30.00045254 -0.04254356 32 0 C35.21169637 6.92357497 38.23729682 13.88488175 41 21 C40 22 40 22 36.9375 22.0625 C35.968125 22.041875 34.99875 22.02125 34 22 C33.67 20.35 33.34 18.7 33 17 C30.36 17 27.72 17 25 17 C24.01 19.475 24.01 19.475 23 22 C21.02 22 19.04 22 17 22 C16.67 21.34 16.34 20.68 16 20 C15.34 20.66 14.68 21.32 14 22 C9.32380812 22.28034724 4.68783389 22.08523334 0 22 C0 14.74 0 7.48 0 0 Z M6 5 C6 5.99 6 6.98 6 8 C7.32 8 8.64 8 10 8 C9.67 7.01 9.34 6.02 9 5 C8.01 5 7.02 5 6 5 Z M28 10 C28 10.66 28 11.32 28 12 C28.66 12 29.32 12 30 12 C30 11.34 30 10.68 30 10 C29.34 10 28.68 10 28 10 Z M6 13 C6 14.32 6 15.64 6 17 C7.98 16.67 9.96 16.34 12 16 C11.34 15.01 10.68 14.02 10 13 C8.68 13 7.36 13 6 13 Z " fill="#1D1D1D" transform="translate(195,50)"/>
<path d="M0 0 C2.0625 -0.061875 4.125 -0.12375 6.25 -0.1875 C7.99023438 -0.23970703 7.99023438 -0.23970703 9.765625 -0.29296875 C13.25809805 0.02337845 14.63604314 0.43952839 17 3 C17.31648035 6.92435637 17.22410745 9.99151646 16.375 13.8125 C15.69328085 16.28450846 15.69328085 16.28450846 18 19 C21.18751247 12.74254723 24.21286475 6.44622342 27 0 C28.98 0 30.96 0 33 0 C36.81085857 7.17773362 40.00878667 14.10501383 42 22 C39.69 22 37.38 22 35 22 C34.67 20.35 34.34 18.7 34 17 C30.56206661 17.18129815 30.56206661 17.18129815 27 18 C25.73990208 19.97742781 25.73990208 19.97742781 25 22 C12.25381166 22.92017937 12.25381166 22.92017937 9.1796875 20.6640625 C8.125 19 8.125 19 7 16 C6.34 17.98 5.68 19.96 5 22 C3.35 22 1.7 22 0 22 C0 14.74 0 7.48 0 0 Z M6 5 C6 6.65 6 8.3 6 10 C7.65 9.67 9.3 9.34 11 9 C11 8.01 11 7.02 11 6 C9.35 5.67 7.7 5.34 6 5 Z M29 10 C29 10.66 29 11.32 29 12 C29.66 12 30.32 12 31 12 C31 11.34 31 10.68 31 10 C30.34 10 29.68 10 29 10 Z " fill="#1D1D1D" transform="translate(237,50)"/>
<path d="M0 0 C2.4375 1.0625 2.4375 1.0625 4 2 C3.34 3.65 2.68 5.3 2 7 C-0.66666667 6.33333333 -3.33333333 5.66666667 -6 5 C-5.67 5.66 -5.34 6.32 -5 7 C-2.6859378 7.73075648 -0.35171131 8.40138258 2 9 C2 9.66 2 10.32 2 11 C2.66 11 3.32 11 4 11 C4.48073155 18.33115611 4.48073155 18.33115611 2.5625 21 C-1.24740656 22.48679281 -4.96164536 22.54745301 -9 22 C-11.28125 20.98046875 -11.28125 20.98046875 -13 20 C-13 20.66 -13 21.32 -13 22 C-14.98 22 -16.96 22 -19 22 C-19.66 20.35 -20.32 18.7 -21 17 C-24.43793339 17.18129815 -24.43793339 17.18129815 -28 18 C-29.51294288 19.93597032 -29.51294288 19.93597032 -30 22 C-32.31 22 -34.62 22 -37 22 C-35.44140281 16.92626872 -33.79103786 12.53543652 -31 8 C-29.91271443 5.35874008 -28.95830523 2.69238137 -28 0 C-25.69 0 -23.38 0 -21 0 C-17.535 7.92 -17.535 7.92 -14 16 C-12.35 15.34 -10.7 14.68 -9 14 C-8.34 14 -7.68 14 -7 14 C-7.99 13.484375 -8.98 12.96875 -10 12.4375 C-13 10 -13 10 -13.75 6.5 C-13 3 -13 3 -10.4375 0.5 C-6.31793162 -1.29762984 -4.30820928 -1.11694315 0 0 Z M-25 10 C-25.33 10.66 -25.66 11.32 -26 12 C-25.01 11.67 -24.02 11.34 -23 11 C-23.66 10.67 -24.32 10.34 -25 10 Z " fill="#1E1E1E" transform="translate(192,18)"/>
<path d="M0 0 C-0.66 0.66 -1.32 1.32 -2 2 C-2.08647997 5.02679893 -1.33724887 6.61111494 0.6328125 8.8828125 C2.38458571 10.63458571 4.1642143 12.33676857 6 14 C5.67 14.66 5.34 15.32 5 16 C2.20080129 14.81572362 0.21949739 13.34046715 -2 11.3125 C-4.67429084 8.7475581 -4.67429084 8.7475581 -7.3125 9.0625 C-9.18189338 9.89321682 -9.18189338 9.89321682 -10 12 C-9.01 12 -8.02 12 -7 12 C-7 12.99 -7 13.98 -7 15 C-8.32 15 -9.64 15 -11 15 C-10.67 17.64 -10.34 20.28 -10 23 C-11.65 23 -13.3 23 -15 23 C-15 23.66 -15 24.32 -15 25 C-16.051875 25.391875 -17.10375 25.78375 -18.1875 26.1875 C-21.92791983 27.76241361 -24.2114542 30.05210873 -27 33 C-27.66 33 -28.32 33 -29 33 C-31.68440413 26.79231544 -32.20771745 19.91467034 -30.20703125 13.4296875 C-28.57047395 9.6298648 -26.73123093 6.14091557 -24 3 C-23.484375 3.680625 -22.96875 4.36125 -22.4375 5.0625 C-20.02745496 7.42428622 -20.02745496 7.42428622 -16.25 6.75 C-15.1775 6.5025 -14.105 6.255 -13 6 C-12.67 6.66 -12.34 7.32 -12 8 C-11.814375 6.88625 -11.62875 5.7725 -11.4375 4.625 C-10 1 -10 1 -6.5625 -0.5 C-3 -1 -3 -1 0 0 Z " fill="#B9BBB9" transform="translate(48,26)"/>
<path d="M0 0 C2.64 0 5.28 0 8 0 C9.32 2.64 10.64 5.28 12 8 C14.01136276 5.44008376 15.62845496 2.95409701 17 0 C19.64 0 22.28 0 25 0 C25 7.26 25 14.52 25 22 C23.02 22 21.04 22 19 22 C18.67 19.36 18.34 16.72 18 14 C16.68 16.31 15.36 18.62 14 21 C12.1875 20.8125 12.1875 20.8125 10 20 C8.25 17.4375 8.25 17.4375 7 15 C6.67 17.31 6.34 19.62 6 22 C4.02 22 2.04 22 0 22 C0 14.74 0 7.48 0 0 Z " fill="#1E1E1E" transform="translate(268,18)"/>
<path d="M0 0 C1.98 0 3.96 0 6 0 C6.99 2.31 7.98 4.62 9 7 C9.99 4.69 10.98 2.38 12 0 C14.31 0 16.62 0 19 0 C19.99 2.31 20.98 4.62 22 7 C22.99 4.69 23.98 2.38 25 0 C26.98 0 28.96 0 31 0 C29.83107109 7.8859085 27.26456103 14.74818885 24 22 C22.35 22 20.7 22 19 22 C18.01 19.03 17.02 16.06 16 13 C14.68 15.97 13.36 18.94 12 22 C10.35 22 8.7 22 7 22 C4.05532446 14.7282249 1.43993546 7.72329019 0 0 Z " fill="#1D1D1D" transform="translate(134,50)"/>
<path d="M0 0 C6 0 6 0 8.1171875 1.96875 C8.69726562 2.8040625 9.27734375 3.639375 9.875 4.5 C10.47054687 5.3353125 11.06609375 6.170625 11.6796875 7.03125 C12.11539063 7.6809375 12.55109375 8.330625 13 9 C13.33 6.03 13.66 3.06 14 0 C15.98 0 17.96 0 20 0 C20 7.26 20 14.52 20 22 C14 22 14 22 11.8828125 20.25 C11.30273438 19.5075 10.72265625 18.765 10.125 18 C9.52945313 17.2575 8.93390625 16.515 8.3203125 15.75 C7.88460937 15.1725 7.44890625 14.595 7 14 C6.67 16.64 6.34 19.28 6 22 C4.02 22 2.04 22 0 22 C0 14.74 0 7.48 0 0 Z " fill="#1E1E1E" transform="translate(134,18)"/>
<path d="M0 0 C13.39583333 -0.40593434 13.39583333 -0.40593434 18 3 C20.09111708 5.3699327 20.95569007 7.00922987 21.09765625 10.18359375 C20.83866887 14.03050386 20.46940815 16.37412246 18.125 19.5 C12.75802838 23.28845055 6.28814398 22.06225885 0 22 C0 14.74 0 7.48 0 0 Z M7 5 C7 8.63 7 12.26 7 16 C8.65 16 10.3 16 12 16 C14.28930236 14.11861241 14.28930236 14.11861241 14.375 11.0625 C14.30457401 7.93830843 14.30457401 7.93830843 12.1875 6.125 C9.96532836 4.77132599 9.96532836 4.77132599 7 5 Z " fill="#1E1E1E" transform="translate(245,18)"/>
<path d="M0 0 C13.3585823 -0.40480552 13.3585823 -0.40480552 18 3 C20.57399511 5.57399511 20.32659936 6.73569284 20.375 10.3125 C20.30968851 14.14578206 20.14852209 15.74392743 18.1875 19.125 C13.09487924 23.49010351 6.33296244 22.0627026 0 22 C0 14.74 0 7.48 0 0 Z M6 5 C6 8.63 6 12.26 6 16 C8.91652174 16.16681109 8.91652174 16.16681109 12 16 C14.28930236 14.11861241 14.28930236 14.11861241 14.375 11.0625 C14.29891329 7.95163458 14.29891329 7.95163458 12.25 6.125 C9.82297795 4.7018576 9.82297795 4.7018576 6 5 Z " fill="#1E1E1E" transform="translate(101,18)"/>
<path d="M0 0 C5.28 0 10.56 0 16 0 C16 1.65 16 3.3 16 5 C12.7 5 9.4 5 6 5 C6 5.99 6 6.98 6 8 C8.97 8 11.94 8 15 8 C15 9.98 15 11.96 15 14 C12.03 14 9.06 14 6 14 C6 14.66 6 15.32 6 16 C9.3 16 12.6 16 16 16 C16 17.98 16 19.96 16 22 C10.72 22 5.44 22 0 22 C0 14.74 0 7.48 0 0 Z " fill="#1E1E1E" transform="translate(207,18)"/>
<path d="M0 0 C2.875 1.5 2.875 1.5 5 3 C4.6875 4.9375 4.6875 4.9375 4 7 C0.23375329 8.25541557 -1.37188934 7.37061958 -5 6 C-4.19995526 8.14309946 -4.19995526 8.14309946 -2.22265625 8.74609375 C-0.78566942 9.20603348 0.65183015 9.66437437 2.08984375 10.12109375 C4 11 4 11 6 14 C6.48436452 17.14836941 6.26042732 18.5620086 4.625 21.3125 C0.67157969 23.85398448 -3.42179057 23.81439302 -8 23 C-10.3125 21.47265625 -10.3125 21.47265625 -12 20 C-11.6875 18.0625 -11.6875 18.0625 -11 16 C-7.23375329 14.74458443 -5.62811066 15.62938042 -2 17 C-4.82798453 14.95423206 -4.82798453 14.95423206 -7.625 14 C-10 13 -10 13 -11 11 C-11.49823071 5.76857749 -11.49823071 5.76857749 -11 3 C-7.62790315 -0.17373821 -4.51074521 -0.56384315 0 0 Z " fill="#1E1E1E" transform="translate(237,17)"/>
<path d="M0 0 C1.98 0 3.96 0 6 0 C13.66742597 14.59681093 13.66742597 14.59681093 15 22 C13.02 22 11.04 22 9 22 C8.34 20.35 7.68 18.7 7 17 C3.56206661 17.18129815 3.56206661 17.18129815 0 18 C-1.51294288 19.93597032 -1.51294288 19.93597032 -2 22 C-3.98 22 -5.96 22 -8 22 C-8.33 21.34 -8.66 20.68 -9 20 C-8.28735352 17.93701172 -8.28735352 17.93701172 -7.12890625 15.4296875 C-6.51499023 14.08583984 -6.51499023 14.08583984 -5.88867188 12.71484375 C-5.45103516 11.77769531 -5.01339844 10.84054688 -4.5625 9.875 C-3.9118457 8.45767578 -3.9118457 8.45767578 -3.24804688 7.01171875 C-2.1723338 4.67115623 -1.08940487 2.33421339 0 0 Z M2 10 C2 10.66 2 11.32 2 12 C2.99 11.67 3.98 11.34 5 11 C4.01 10.67 3.02 10.34 2 10 Z " fill="#1D1D1D" transform="translate(171,50)"/>
<path d="M0 0 C1.4540625 0.0309375 1.4540625 0.0309375 2.9375 0.0625 C4.28304945 2.97368213 5.61174529 5.89225653 6.9375 8.8125 C7.3190625 9.6375 7.700625 10.4625 8.09375 11.3125 C8.4546875 12.11171875 8.815625 12.9109375 9.1875 13.734375 C9.52265625 14.4675293 9.8578125 15.20068359 10.203125 15.95605469 C10.9375 18.0625 10.9375 18.0625 10.9375 22.0625 C8.9575 22.0625 6.9775 22.0625 4.9375 22.0625 C4.4425 19.5875 4.4425 19.5875 3.9375 17.0625 C1.2975 17.0625 -1.3425 17.0625 -4.0625 17.0625 C-5.0525 19.5375 -5.0525 19.5375 -6.0625 22.0625 C-8.0425 22.0625 -10.0225 22.0625 -12.0625 22.0625 C-11.38373256 17.27341862 -9.52156236 13.1869525 -7.5625 8.8125 C-7.08103516 7.71421875 -7.08103516 7.71421875 -6.58984375 6.59375 C-3.70496394 0.07561151 -3.70496394 0.07561151 0 0 Z M-1.0625 9.0625 C-1.0625 10.0525 -1.0625 11.0425 -1.0625 12.0625 C-0.4025 11.7325 0.2575 11.4025 0.9375 11.0625 C0.2775 10.4025 -0.3825 9.7425 -1.0625 9.0625 Z " fill="#1D1D1D" transform="translate(125.0625,49.9375)"/>
<path d="M0 0 C3.63 0 7.26 0 11 0 C11.08083562 3.10468645 11.14041718 6.20727569 11.1875 9.3125 C11.21263672 10.19357422 11.23777344 11.07464844 11.26367188 11.98242188 C11.27817383 13.25375977 11.27817383 13.25375977 11.29296875 14.55078125 C11.31653442 15.72120972 11.31653442 15.72120972 11.34057617 16.9152832 C10.91303703 19.53231314 10.06822237 20.39393791 8 22 C6.0625 22.36328125 6.0625 22.36328125 4 22.3125 C2.9790625 22.30669922 2.9790625 22.30669922 1.9375 22.30078125 C0 22 0 22 -3 20 C-2.49396008 17.83125748 -2.00016187 16.00032373 -1 14 C0.98 14.66 2.96 15.32 5 16 C5 12.37 5 8.74 5 5 C3.35 5 1.7 5 0 5 C0 3.35 0 1.7 0 0 Z " fill="#1D1D1D" transform="translate(101,50)"/>
<path d="M0 0 C5.61 0 11.22 0 17 0 C17 1.65 17 3.3 17 5 C15.02 5 13.04 5 11 5 C11 10.61 11 16.22 11 22 C9.02 22 7.04 22 5 22 C5 16.39 5 10.78 5 5 C3.35 5 1.7 5 0 5 C0 3.35 0 1.7 0 0 Z " fill="#1D1D1D" transform="translate(277,50)"/>
<path d="M0 0 C1.875 1.0625 1.875 1.0625 3 3 C3.63099369 8.468612 2.39672581 12.11436661 0 17 C-0.391875 17.804375 -0.78375 18.60875 -1.1875 19.4375 C-1.455625 19.953125 -1.72375 20.46875 -2 21 C-3.89453125 20.7578125 -3.89453125 20.7578125 -6 20 C-8.54940752 15.41303511 -9.89856087 9.17339569 -10 4 C-7.33590339 -0.15599071 -4.77534506 -0.7112216 0 0 Z " fill="#3EBA5A" transform="translate(70,27)"/>
<path d="M0 0 C1.29315061 0.95632999 2.58446853 1.91513851 3.875 2.875 C4.59429687 3.40867188 5.31359375 3.94234375 6.0546875 4.4921875 C8 6 8 6 10 8 C9.81997597 10.6103485 8.79692411 12.40615178 7.625 14.75 C3.92821711 17.91867105 0.98561312 17.39201107 -3.734375 17.17578125 C-4.48203125 17.11777344 -5.2296875 17.05976562 -6 17 C-5.57664615 10.50857435 -3.08900201 5.66507011 0 0 Z " fill="#404540" transform="translate(23,29)"/>
<path d="M0 0 C1.9375 0.3125 1.9375 0.3125 4 1 C5 4 5 4 4.22265625 5.875 C3.83980469 6.57625 3.45695312 7.2775 3.0625 8 C-0.41809131 15.36925195 0.60914525 23.17644203 2 31 C0.02 31.99 0.02 31.99 -2 33 C-2 32.34 -2 31.68 -2 31 C-2.66 31 -3.32 31 -4 31 C-4.16947579 29.58366664 -4.33545507 28.16691467 -4.5 26.75 C-4.5928125 25.96109375 -4.685625 25.1721875 -4.78125 24.359375 C-5 22 -5 22 -5 18 C-4.34 17.34 -3.68 16.68 -3 16 C-3.66 15.67 -4.32 15.34 -5 15 C-5 11 -5 11 -3 9 C-2.40165446 7.47943382 -1.86493344 5.93387912 -1.375 4.375 C-1.11460938 3.55773438 -0.85421875 2.74046875 -0.5859375 1.8984375 C-0.39257812 1.27195312 -0.19921875 0.64546875 0 0 Z " fill="#13DD23" transform="translate(17,29)"/>
<path d="M0 0 C5.445 0.495 5.445 0.495 11 1 C11 2.32 11 3.64 11 5 C8.2271113 6.38644435 5.78381508 6.23034457 2.6875 6.375 C-4.44251601 6.8247735 -11.10511185 8.17892489 -18 10 C-18.33 8.68 -18.66 7.36 -19 6 C-13.26769829 3.14711836 -8.40140935 1.46555704 -2 1 C-2 2.32 -2 3.64 -2 5 C-1.34 5 -0.68 5 0 5 C0 3.35 0 1.7 0 0 Z " fill="#0DDC1B" transform="translate(47,11)"/>
<path d="M0 0 C1.98 0 3.96 0 6 0 C6 7.26 6 14.52 6 22 C4.02 22 2.04 22 0 22 C0 14.74 0 7.48 0 0 Z " fill="#1E1E1E" transform="translate(124,18)"/>
<path d="M0 0 C2.10409639 -0.02701408 4.20829178 -0.04640223 6.3125 -0.0625 C7.48425781 -0.07410156 8.65601563 -0.08570313 9.86328125 -0.09765625 C13 0 13 0 16 1 C16 1.66 16 2.32 16 3 C14.948125 3.391875 13.89625 3.78375 12.8125 4.1875 C9.07208017 5.76241361 6.7885458 8.05210873 4 11 C3.34 11 2.68 11 2 11 C0.56331706 7.1389146 -0.11185208 4.103573 0 0 Z " fill="#41443F" transform="translate(17,48)"/>
<path d="M0 0 C-0.66 0.66 -1.32 1.32 -2 2 C-2.08647997 5.02679893 -1.33724887 6.61111494 0.6328125 8.8828125 C2.38458571 10.63458571 4.1642143 12.33676857 6 14 C5.67 14.66 5.34 15.32 5 16 C2.10400552 14.77477157 0.4753009 13.5095204 -1.875 11.3125 C-4.80592583 8.62894416 -4.80592583 8.62894416 -8.375 9.1875 C-9.24125 9.455625 -10.1075 9.72375 -11 10 C-10.67 7.03 -10.34 4.06 -10 1 C-3.375 -1.125 -3.375 -1.125 0 0 Z " fill="#424141" transform="translate(48,26)"/>
<path d="M0 0 C2.5 0.25 2.5 0.25 4.5 2.25 C4.17176873 6.59906427 3.30260764 10.2842632 1.5 14.25 C0.51 14.25 -0.48 14.25 -1.5 14.25 C-5.11643836 6.56506849 -5.11643836 6.56506849 -4.5 2.25 C-2.5 0.25 -2.5 0.25 0 0 Z " fill="#F0F7EC" transform="translate(66.5,28.75)"/>
<path d="M0 0 C1.65 0 3.3 0 5 0 C6.02506046 2.93850666 6.95454338 5.74430649 7.5 8.8125 C7.665 9.534375 7.83 10.25625 8 11 C8.66 11.33 9.32 11.66 10 12 C10 16.29 10 20.58 10 25 C10.99 25.33 11.98 25.66 13 26 C13 26.99 13 27.98 13 29 C11.02 29.99 9.04 30.98 7 32 C7.05220703 30.19015625 7.05220703 30.19015625 7.10546875 28.34375 C7.13362984 26.72918072 7.16092749 25.11459621 7.1875 23.5 C7.21263672 22.70851563 7.23777344 21.91703125 7.26367188 21.1015625 C7.36544966 12.8236362 4.83883963 6.67426155 0 0 Z " fill="#16F526" transform="translate(72,27)"/>
<path d="M0 0 C0.33 0.66 0.66 1.32 1 2 C1.66 2 2.32 2 3 2 C2.6875 4.875 2.6875 4.875 2 8 C-1 10 -1 10 -3.625 9.6875 C-6 9 -6 9 -7 8 C-7.375 5.625 -7.375 5.625 -7 3 C-4.6167054 1.18116991 -3.04181663 0 0 0 Z " fill="#38B240" transform="translate(76,46)"/>
<path d="M0 0 C0.66 0 1.32 0 2 0 C2 0.66 2 1.32 2 2 C3.65 2.33 5.3 2.66 7 3 C7.125 8.75 7.125 8.75 6 11 C3.625 11.125 3.625 11.125 1 11 C-1.35953094 8.64046906 -1.49141413 7.22104383 -2 4 C-1.01 3.67 -0.02 3.34 1 3 C0.67 2.01 0.34 1.02 0 0 Z " fill="#3FB547" transform="translate(57,45)"/>
<path d="M0 0 C4.12838068 0.60711481 7.40422382 1.87522317 11 4 C11.33 4.99 11.66 5.98 12 7 C12.66 7 13.32 7 14 7 C14 7.66 14 8.32 14 9 C14.66 9.33 15.32 9.66 16 10 C15.67 10.66 15.34 11.32 15 12 C14.34 12 13.68 12 13 12 C12.57074219 11.566875 12.14148438 11.13375 11.69921875 10.6875 C8.93832469 7.94564659 5.47295552 6.36282535 2.08203125 4.5 C1.39496094 4.005 0.70789062 3.51 0 3 C0 2.01 0 1.02 0 0 Z " fill="#065D0C" transform="translate(60,14)"/>
<path d="M0 0 C0 1.32 0 2.64 0 4 C-1.01320313 4.16435547 -1.01320313 4.16435547 -2.046875 4.33203125 C-3.38492188 4.56986328 -3.38492188 4.56986328 -4.75 4.8125 C-6.07257812 5.03873047 -6.07257812 5.03873047 -7.421875 5.26953125 C-10.07731869 5.8511637 -10.07731869 5.8511637 -12.140625 7.63671875 C-12.75421875 8.08660156 -13.3678125 8.53648438 -14 9 C-14.99 8.67 -15.98 8.34 -17 8 C-17 7.01 -17 6.02 -17 5 C-6.3255814 0 -6.3255814 0 0 0 Z " fill="#06600D" transform="translate(45,12)"/>
<path d="M0 0 C0 1.98 0 3.96 0 6 C-3.63423209 8.32590854 -6.77088331 8.16265833 -11 8 C-10.67 6.35 -10.34 4.7 -10 3 C-7 2 -7 2 -4.9375 1.5 C-3.24159864 1.06234804 -1.71712079 0 0 0 Z " fill="#F6F7E5" transform="translate(79,53)"/>
<path d="M0 0 C0.99 0.33 1.98 0.66 3 1 C2.24964259 4.11799003 1.36636589 7.18070403 0.4375 10.25 C0.16808594 11.14203125 -0.10132813 12.0340625 -0.37890625 12.953125 C-0.58386719 13.62859375 -0.78882813 14.3040625 -1 15 C-2.32 15 -3.64 15 -5 15 C-5 11 -5 11 -3 9 C-2.40165446 7.47943382 -1.86493344 5.93387912 -1.375 4.375 C-1.11460938 3.55773438 -0.85421875 2.74046875 -0.5859375 1.8984375 C-0.39257812 1.27195312 -0.19921875 0.64546875 0 0 Z " fill="#08700F" transform="translate(17,29)"/>
<path d="M0 0 C1.49821059 3.37097383 2 5.20442119 2 9 C-2.455 8.01 -2.455 8.01 -7 7 C-3.5 0 -3.5 0 0 0 Z " fill="#4E4E4E" transform="translate(36,40)"/>
<path d="M0 0 C3 3.33333333 3 3.33333333 3 6 C3.99 6 4.98 6 6 6 C6 6.99 6 7.98 6 9 C4.35 9.33 2.7 9.66 1 10 C1 9.01 1 8.02 1 7 C0.34 7 -0.32 7 -1 7 C-1 6.34 -1 5.68 -1 5 C-3.475 4.01 -3.475 4.01 -6 3 C-3.375 0 -3.375 0 0 0 Z " fill="#A2A2A2" transform="translate(35,32)"/>
<path d="M0 0 C1.32 0 2.64 0 4 0 C4.33 4.29 4.66 8.58 5 13 C3.68 13 2.36 13 1 13 C0.67 8.71 0.34 4.42 0 0 Z " fill="#06570B" transform="translate(81,39)"/>
<path d="M0 0 C0.53625 0.680625 1.0725 1.36125 1.625 2.0625 C4.35076561 5.43384168 7.16483178 8.72065543 10 12 C5.67462147 12 5.36846604 11.86581388 2.4375 9.125 C0.32207685 7.17447621 -1.58297265 5.61135157 -4 4 C-3.01 3.67 -2.02 3.34 -1 3 C-0.67 2.01 -0.34 1.02 0 0 Z " fill="#715936" transform="translate(44,29)"/>
<path d="M0 0 C0.66 0.33 1.32 0.66 2 1 C2.4140625 3.72265625 2.4140625 3.72265625 2.625 7.0625 C2.69976563 8.16722656 2.77453125 9.27195312 2.8515625 10.41015625 C2.90054687 11.26480469 2.94953125 12.11945312 3 13 C1.68 13 0.36 13 -1 13 C-1.54466387 8.915021 -2 5.1274515 -2 1 C-1.34 0.67 -0.68 0.34 0 0 Z " fill="#076A0E" transform="translate(14,46)"/>
<path d="M0 0 C0.99 0 1.98 0 3 0 C3 0.66 3 1.32 3 2 C4.03125 2.0825 5.0625 2.165 6.125 2.25 C10.52975387 3.10253301 12.48512937 4.34241489 16 7 C15.67 8.32 15.34 9.64 15 11 C14.236875 10.2575 13.47375 9.515 12.6875 8.75 C8.41018911 5.1323226 3.26554987 3.67710574 -2 2 C-1.34 1.34 -0.68 0.68 0 0 Z " fill="#26F234" transform="translate(56,16)"/>
<path d="M0 0 C0.33 0 0.66 0 1 0 C1 2.64 1 5.28 1 8 C2.32 8.33 3.64 8.66 5 9 C5 9.99 5 10.98 5 12 C3.02 12.99 1.04 13.98 -1 15 C-0.67 10.05 -0.34 5.1 0 0 Z " fill="#31F838" transform="translate(80,44)"/>
<path d="M0 0 C2.375 -0.125 2.375 -0.125 5 0 C7 2 7 2 7.125 4.625 C7.08375 5.40875 7.0425 6.1925 7 7 C6.34 7 5.68 7 5 7 C3.37485532 8.45833358 3.37485532 8.45833358 2 10 C1.375 7.6875 1.375 7.6875 1 5 C1.66 4.01 2.32 3.02 3 2 C2.01 1.34 1.02 0.68 0 0 Z " fill="#F3E3A4" transform="translate(64,29)"/>
<path d="M0 0 C2.91227269 3.28804981 4.49701212 5.59885603 5 10 C4.01 10.33 3.02 10.66 2 11 C1.54625 9.88625 1.0925 8.7725 0.625 7.625 C-0.72465986 4.03800992 -0.72465986 4.03800992 -3 2 C-2.01 1.34 -1.02 0.68 0 0 Z " fill="#065E0D" transform="translate(78,26)"/>
<path d="M0 0 C0.66 0 1.32 0 2 0 C3.47368421 8.28947368 3.47368421 8.28947368 1 12 C-0.32 10.68 -1.64 9.36 -3 8 C-2.67 7.34 -2.34 6.68 -2 6 C-1.34 6.33 -0.68 6.66 0 7 C0 4.69 0 2.38 0 0 Z " fill="#F3C846" transform="translate(66,48)"/>
<path d="M0 0 C3.3 0.33 6.6 0.66 10 1 C10 1.99 10 2.98 10 4 C6.7 4 3.4 4 0 4 C0 2.68 0 1.36 0 0 Z " fill="#07630D" transform="translate(47,11)"/>
<path d="M0 0 C3.875 0.875 3.875 0.875 5 2 C5.41029216 6.26703842 5.44913896 8.34032715 3 11.9375 C2.34 12.618125 1.68 13.29875 1 14 C1.09539062 13.24074219 1.19078125 12.48148438 1.2890625 11.69921875 C1.39992188 10.70535156 1.51078125 9.71148437 1.625 8.6875 C1.74101563 7.70136719 1.85703125 6.71523438 1.9765625 5.69921875 C2.25476995 2.77342584 2.25476995 2.77342584 0 0 Z " fill="#3BB959" transform="translate(68,28)"/>
<path d="M0 0 C0.99 0.66 1.98 1.32 3 2 C3 2.66 3 3.32 3 4 C3.66 4 4.32 4 5 4 C5 4.66 5 5.32 5 6 C5.66 6.33 6.32 6.66 7 7 C6.67 7.66 6.34 8.32 6 9 C4 9 4 9 2.5625 7.6875 C2.046875 7.130625 1.53125 6.57375 1 6 C0.443125 5.443125 -0.11375 4.88625 -0.6875 4.3125 C-1.120625 3.879375 -1.55375 3.44625 -2 3 C-1.34 2.01 -0.68 1.02 0 0 Z " fill="#08710F" transform="translate(69,17)"/>
<path d="M0 0 C1.125 1.75 1.125 1.75 2 4 C1.125 6.25 1.125 6.25 0 8 C-1.32 7.67 -2.64 7.34 -4 7 C-4 5.35 -4 3.7 -4 2 C-2.68 2.33 -1.36 2.66 0 3 C0 2.01 0 1.02 0 0 Z " fill="#5FC677" transform="translate(68,40)"/>
<path d="M0 0 C0.66 0.33 1.32 0.66 2 1 C1.67 2.32 1.34 3.64 1 5 C0.34 5 -0.32 5 -1 5 C-1.33 5.99 -1.66 6.98 -2 8 C-3.32 7.67 -4.64 7.34 -6 7 C-5.67 6.34 -5.34 5.68 -5 5 C-4.34 5 -3.68 5 -3 5 C-2.87625 4.360625 -2.7525 3.72125 -2.625 3.0625 C-2.41875 2.381875 -2.2125 1.70125 -2 1 C-1.34 0.67 -0.68 0.34 0 0 Z " fill="#07670E" transform="translate(25,20)"/>
<path d="M0 0 C0.33 0.66 0.66 1.32 1 2 C1.66 2 2.32 2 3 2 C2.67 3.98 2.34 5.96 2 8 C1.34 7.01 0.68 6.02 0 5 C-2.55183404 3.79549696 -2.55183404 3.79549696 -5 3 C-5.33 3.66 -5.66 4.32 -6 5 C-5.6875 3.0625 -5.6875 3.0625 -5 1 C-2 0 -2 0 0 0 Z " fill="#3EBB5C" transform="translate(76,46)"/>
<path d="M0 0 C3.5 0.125 3.5 0.125 7 1 C8.4375 3.0625 8.4375 3.0625 9 5 C5.0507432 4.44894091 1.65079826 3.61064629 -2 2 C-1.34 1.34 -0.68 0.68 0 0 Z " fill="#FAF3D8" transform="translate(57,55)"/>
<path d="M0 0 C0.66 0.33 1.32 0.66 2 1 C1.25 2.9375 1.25 2.9375 0 5 C-2.125 5.75 -2.125 5.75 -4 6 C-4.33 4.68 -4.66 3.36 -5 2 C-2.625 0.9375 -2.625 0.9375 0 0 Z " fill="#08710F" transform="translate(33,15)"/>
<path d="M0 0 C1.65 0 3.3 0 5 0 C6 3 7 6 8 9 C4.46766245 7.82255415 4.13691925 7.04394359 2.3125 3.9375 C1.87550781 3.20402344 1.43851562 2.47054688 0.98828125 1.71484375 C0.49908203 0.86599609 0.49908203 0.86599609 0 0 Z " fill="#1CE829" transform="translate(72,27)"/>
<path d="M0 0 C0.33 0.66 0.66 1.32 1 2 C1.99 2.33 2.98 2.66 4 3 C4 4.32 4 5.64 4 7 C2.68 7 1.36 7 0 7 C0 4.69 0 2.38 0 0 Z " fill="#087911" transform="translate(82,45)"/>
<path d="M0 0 C1.65 0 3.3 0 5 0 C4.67 1.65 4.34 3.3 4 5 C4.99 5.33 5.98 5.66 7 6 C5.35 6 3.7 6 2 6 C1.34 4.02 0.68 2.04 0 0 Z " fill="#16AD3C" transform="translate(55,49)"/>
<path d="M0 0 C-2.6855594 2.6855594 -5.37621328 3.06049974 -9 4 C-8.67 3.01 -8.34 2.02 -8 1 C-5.29120665 -0.35439668 -2.99066732 -0.06501451 0 0 Z " fill="#44BD62" transform="translate(70,27)"/>
</svg>
